# xmcd CD database file generated by Grip 2.94
# 
# Track frame offsets:
#       150
#       8367
#       18772
#       33020
#       48405
#       60830
#       75720
#       87630
#       99400
#       114437
#       135707
# 
# Disc length: 2016 seconds
# 
# Revision: 3
# Processed by: cddbd v1.4b41PL1 Copyright (c) Steve Scherf et al.
# Submitted via: Grip 2.94
# 
DISCID=7107de0b
DTITLE=Charlie Mc Coy - harpin' the blues
DYEAR=1900
DGENRE=
TTITLE0=after hours
TTITLE1=lovesicks blues
TTITLE2=(i heard that) lonesome whistle
TTITLE3=basin dtreet blues
TTITLE4=a tribute to little walter
TTITLE5=columbus stockade blues
TTITLE6=blue yodel n°1
TTITLE7=blues stay away from me
TTITLE8=st louis blues
TTITLE9=night life
TTITLE10=working man's blues
EXTD=
EXTT0=
EXTT1=
EXTT2=
EXTT3=
EXTT4=
EXTT5=
EXTT6=
EXTT7=
EXTT8=
EXTT9=
EXTT10=
PLAYORDER=
